<svg width="136" height="49" viewBox="0 0 136 49" fill="none" xmlns="http://www.w3.org/2000/svg">
<g clip-path="url(#clip0_2_513)">
<path d="M27.706 17.4904C22.8252 17.4904 19.0116 21.1955 19.0116 26.1554C19.0116 31.1155 22.7289 34.7888 27.706 34.7888C32.6831 34.7888 36.4649 31.052 36.4649 26.1238C36.4649 21.2272 32.7477 17.4904 27.706 17.4904ZM27.7389 31.2143C24.9595 31.2143 22.9228 29.0556 22.9228 26.1567C22.9228 23.2248 24.9266 21.0674 27.706 21.0674C30.5183 21.0674 32.5538 23.2577 32.5538 26.1567C32.5538 29.0556 30.5183 31.2143 27.7389 31.2143ZM37.5309 21.2601H39.9552V34.4681H43.8335V17.8124H37.5309V21.2601ZM9.25138 21.0662C11.2881 21.0662 12.904 22.3223 13.5175 24.1907H17.6225C16.8786 20.1966 13.5821 17.4904 9.2843 17.4904C4.40357 17.4904 0.589966 21.1955 0.589966 26.1567C0.589966 31.1179 4.30723 34.79 9.2843 34.79C13.4857 34.79 16.8469 32.0838 17.5908 28.0568H13.5175C12.9357 29.9252 11.3198 31.2143 9.2831 31.2143C6.47075 31.2143 4.4999 29.0556 4.4999 26.1567C4.50114 23.2248 6.44026 21.0662 9.25138 21.0662ZM111.22 24.5456L108.376 24.1273C107.019 23.9346 106.049 23.4834 106.049 22.4199C106.049 21.2601 107.31 20.6808 109.022 20.6808C110.897 20.6808 112.093 21.4857 112.352 22.8065H116.101C115.68 19.4563 113.094 17.4916 109.12 17.4916C105.015 17.4916 102.3 19.5856 102.3 22.5492C102.3 25.3835 104.078 27.0275 107.665 27.5421L110.509 27.9604C111.899 28.1531 112.675 28.7019 112.675 29.7325C112.675 31.0533 111.318 31.6009 109.443 31.6009C107.148 31.6009 105.855 30.6667 105.661 29.2495H101.847C102.204 32.5033 104.756 34.79 109.41 34.79C113.645 34.79 116.456 32.857 116.456 29.5385C116.456 26.575 114.42 25.0286 111.22 24.5456ZM41.8943 10.951C40.4723 10.951 39.4055 11.9816 39.4055 13.3987C39.4055 14.8159 40.4712 15.8464 41.8943 15.8464C43.3163 15.8464 44.3836 14.8159 44.3836 13.3987C44.3836 11.9816 43.3163 10.951 41.8943 10.951ZM98.8096 23.5151C98.8096 19.9076 96.6121 17.4916 91.9579 17.4916C87.5626 17.4916 85.1063 19.7149 84.6211 23.1297H88.4674C88.6613 21.8089 89.6956 20.7137 91.8934 20.7137C93.8656 20.7137 94.8349 21.5833 94.8349 22.6468C94.8349 24.0322 93.0567 24.3859 90.8592 24.6115C87.8858 24.9334 84.2014 25.964 84.2014 29.83C84.2014 32.8265 86.4319 34.7583 89.9873 34.7583C92.7664 34.7583 94.5117 33.5985 95.3851 31.7618C95.5144 33.4046 96.7426 34.4681 98.4559 34.4681H100.718V31.0216H98.8107V23.5151H98.8096ZM94.9958 27.7031C94.9958 29.9264 93.0567 31.5691 90.6968 31.5691C89.2422 31.5691 88.0141 30.9569 88.0141 29.669C88.0141 28.0263 89.9858 27.575 91.7959 27.3824C93.5412 27.2214 94.5106 26.8348 94.9958 26.0933V27.7031ZM74.4083 17.4904C72.2423 17.4904 70.4326 18.3929 69.14 19.9064V10.79H65.2617V34.4681H69.0751V32.2777C70.3677 33.8558 72.2108 34.79 74.4083 34.79C79.0621 34.79 82.5856 31.1179 82.5856 26.1567C82.5856 21.1955 78.9976 17.4904 74.4083 17.4904ZM73.8267 31.2143C71.0472 31.2143 69.0106 29.0556 69.0106 26.1567C69.0106 23.2577 71.0791 21.0674 73.8582 21.0674C76.6707 21.0674 78.6413 23.2261 78.6413 26.1567C78.6413 29.0556 76.6058 31.2143 73.8267 31.2143ZM55.9853 17.4904C53.4646 17.4904 51.8157 18.5209 50.8463 19.971V17.8124H46.9996V34.4669H50.8778V25.4152C50.8778 22.8699 52.4937 21.0662 54.8855 21.0662C57.116 21.0662 58.505 22.6443 58.505 24.9322V34.4681H62.3832V24.6432C62.3847 20.4539 60.2198 17.4904 55.9853 17.4904ZM134.943 25.6091C134.943 20.8418 131.453 17.4916 126.766 17.4916C121.789 17.4916 118.136 21.2284 118.136 26.1567C118.136 31.3435 122.047 34.79 126.831 34.79C130.871 34.79 134.038 32.4058 134.846 29.0239H130.805C130.223 30.5057 128.801 31.3435 126.894 31.3435C124.405 31.3435 122.53 29.7971 122.111 27.0909H134.942V25.6091H134.943ZM122.337 24.32C122.952 22.0004 124.697 20.8735 126.701 20.8735C128.899 20.8735 130.58 22.1296 130.967 24.32H122.337Z" fill="white"/>
</g>
<defs>
<clipPath id="clip0_2_513">
<rect width="135" height="48" fill="white" transform="translate(0.589966 0.790039)"/>
</clipPath>
</defs>
</svg>
