<svg width="164" height="49" viewBox="0 0 164 49" fill="none" xmlns="http://www.w3.org/2000/svg">
<g clip-path="url(#clip0_2_516)">
<path d="M45.8402 14.8031H53.4623C58.3217 14.8031 62.3359 17.6147 62.3359 24.0342V25.3831C62.3359 31.8514 58.5817 34.7605 53.6086 34.7605H45.8402V14.8031ZM50.0982 18.4273V31.12H53.3648C56.1277 31.12 57.9804 29.3161 57.9804 25.3019V24.2455C57.9804 20.2313 56.0302 18.4273 53.2186 18.4273H50.0982ZM64.5949 18.6223H68.0078L68.5604 22.3765C69.2104 19.825 70.8681 18.4598 73.8747 18.4598H74.9311V22.7666H73.1759C69.7143 22.7666 68.8692 23.9692 68.8692 27.3821V34.8092H64.6599V18.6223H64.5949ZM75.7762 27.0408V26.5858C75.7762 21.1739 79.2379 18.216 83.9509 18.216C88.7615 18.216 92.1256 21.1739 92.1256 26.5858V27.0408C92.1256 32.3552 88.859 35.2155 83.9509 35.2155C78.7341 35.1668 75.7762 32.3714 75.7762 27.0408ZM87.8189 26.9921V26.5858C87.8189 23.5792 86.3074 21.7752 83.9022 21.7752C81.5456 21.7752 79.9855 23.4329 79.9855 26.5858V26.9921C79.9855 29.9012 81.4969 31.5588 83.9022 31.5588C86.3074 31.5101 87.8189 29.9012 87.8189 26.9921ZM94.3359 18.6223H97.8463L98.2526 21.6777C99.0977 19.63 100.902 18.216 103.567 18.216C107.679 18.216 110.393 21.1739 110.393 26.6508V27.1058C110.393 32.4202 107.386 35.2318 103.567 35.2318C101.015 35.2318 99.2602 34.0779 98.3989 32.2252V40.3999H94.2871L94.3359 18.6223ZM106.119 26.9921V26.6345C106.119 23.4166 104.461 21.824 102.251 21.824C99.894 21.824 98.3339 23.6279 98.3339 26.6345V26.9433C98.3339 29.8036 99.8453 31.6076 102.202 31.6076C104.623 31.5588 106.119 30.0149 106.119 26.9921ZM116.617 31.8189L116.26 34.7767H112.652V13.2104H116.764V21.4827C117.674 19.3699 119.478 18.216 122.029 18.216C125.897 18.2648 128.757 20.9301 128.757 26.2932V26.797C128.757 32.1602 126.043 35.2318 121.932 35.2318C119.218 35.1668 117.462 33.9154 116.617 31.8189ZM124.434 26.797V26.3907C124.434 23.4329 122.825 21.7752 120.566 21.7752C118.259 21.7752 116.65 23.6279 116.65 26.4395V26.797C116.65 29.8036 118.21 31.5588 120.518 31.5588C122.988 31.5588 124.434 30.0149 124.434 26.797ZM130.561 27.0408V26.5858C130.561 21.1739 134.023 18.216 138.736 18.216C143.547 18.216 146.911 21.1739 146.911 26.5858V27.0408C146.911 32.3552 143.595 35.2155 138.736 35.2155C133.519 35.1668 130.561 32.3714 130.561 27.0408ZM142.637 26.9921V26.5858C142.637 23.5792 141.125 21.7752 138.72 21.7752C136.363 21.7752 134.803 23.4329 134.803 26.5858V26.9921C134.803 29.9012 136.315 31.5588 138.72 31.5588C141.141 31.5101 142.637 29.9012 142.637 26.9921ZM152.42 26.3907L146.748 18.6223H151.608L154.874 23.4817L158.19 18.6223H163L157.247 26.342L163.309 34.7767H158.547L154.842 29.4136L151.234 34.7767H146.261L152.42 26.3907Z" fill="white"/>
<path d="M19.6421 14.8032L10.216 20.8164L19.6421 26.8297L10.216 32.8429L0.789917 26.7971L10.216 20.7839L0.789917 14.8032L10.216 8.79004L19.6421 14.8032ZM10.1673 34.7768L19.5934 28.7636L29.0195 34.7768L19.5934 40.79L10.1673 34.7768ZM19.6421 26.7971L29.0682 20.7839L19.6421 14.8032L29.0195 8.79004L38.4456 14.8032L29.0195 20.8164L38.4456 26.8297L29.0195 32.8429L19.6421 26.7971Z" fill="white"/>
</g>
<defs>
<clipPath id="clip0_2_516">
<rect width="163" height="48" fill="white" transform="translate(0.789917 0.790039)"/>
</clipPath>
</defs>
</svg>
