<svg width="122" height="49" viewBox="0 0 122 49" fill="none" xmlns="http://www.w3.org/2000/svg">
<g clip-path="url(#clip0_2_515)">
<path d="M38.315 33.2165L39.7831 29.785C41.3906 30.9755 43.4873 31.6055 45.5844 31.6055C47.1222 31.6055 48.1006 31.0106 48.1006 30.1003C48.0655 27.5791 38.8393 29.5399 38.7691 23.2013C38.734 19.9799 41.6001 17.4937 45.6546 17.4937C48.0655 17.4937 50.4775 18.0892 52.1897 19.4551L50.8178 22.9597C49.2424 21.9467 47.2966 21.2405 45.4446 21.2405C44.1865 21.2405 43.3474 21.8354 43.3474 22.6063C43.3825 25.0925 52.6794 23.7266 52.7842 29.785C52.7842 33.0766 49.9878 35.3878 46.0035 35.3878C43.0682 35.3878 40.3771 34.6876 38.3145 33.2165H38.315ZM96.7731 28.5425C96.4025 29.2009 95.8634 29.7489 95.2112 30.1303C94.5589 30.5117 93.817 30.7128 93.0614 30.7128C90.7066 30.7128 88.7979 28.8001 88.7979 26.4408C88.7979 24.0815 90.7066 22.1688 93.0614 22.1688C93.817 22.1688 94.5589 22.3699 95.2112 22.7513C95.8634 23.1326 96.4025 23.6807 96.7731 24.3391L100.855 22.0735C99.3258 19.3413 96.4097 17.4937 93.0614 17.4937C88.1298 17.4937 84.1319 21.4991 84.1319 26.4408C84.1319 31.382 88.1298 35.3878 93.0614 35.3878C96.4097 35.3878 99.3258 33.5403 100.855 30.8081L96.7731 28.5425ZM55.4327 35.0375H60.5353V10.0459H55.4332L55.4327 35.0375ZM103.431 10.0459V35.0375H108.534V27.55L114.58 35.0375H121.103L113.414 26.1426L120.543 17.8426H114.301L108.534 24.7431V10.0459H103.431ZM76.2555 17.8436V19.8751C75.4169 18.4742 73.3548 17.4937 71.188 17.4937C66.7145 17.4937 63.1848 21.451 63.1848 26.4233C63.1848 31.3955 66.7145 35.3878 71.188 35.3878C73.3548 35.3878 75.4169 34.4074 76.2555 33.0065V35.0375H81.3581V17.8436H76.2555ZM76.2555 28.5771C75.5217 29.8026 73.9839 30.7123 72.2717 30.7123C69.9164 30.7123 68.0077 28.8001 68.0077 26.4408C68.0077 24.0815 69.9164 22.1688 72.2717 22.1688C73.9839 22.1688 75.5217 23.1141 76.2555 24.3742V28.5771Z" fill="white"/>
<path d="M11.3682 9.49365C9.71467 9.49365 8.37437 10.837 8.37437 12.4935C8.37397 12.8871 8.4511 13.2769 8.60134 13.6406C8.75159 14.0044 8.972 14.335 9.25001 14.6135C9.52802 14.8921 9.85817 15.1132 10.2216 15.2642C10.5851 15.4151 10.9747 15.493 11.3682 15.4934H14.3626V12.4935C14.3633 11.6987 14.0482 10.9361 13.4867 10.3735C12.9251 9.81094 12.1631 9.49445 11.3682 9.49365ZM11.3682 17.4934H3.38407C1.7305 17.4934 0.390198 18.8367 0.390198 20.4938C0.390198 22.1503 1.7305 23.4936 3.38407 23.4936H11.3687C13.0218 23.4936 14.3626 22.1503 14.3626 20.4938C14.3626 18.8367 13.0218 17.4934 11.3682 17.4934Z" fill="white"/>
<path d="M30.3311 20.4938C30.3311 18.8367 28.9903 17.4934 27.3367 17.4934C25.6831 17.4934 24.3428 18.8367 24.3428 20.4938V23.4936H27.3367C28.1316 23.4929 28.8936 23.1764 29.4551 22.6138C30.0166 22.0512 30.3317 21.2886 30.3311 20.4938ZM22.3469 20.4938V12.4935C22.3476 11.6987 22.0325 10.9361 21.4709 10.3735C20.9094 9.81094 20.1474 9.49445 19.3525 9.49365C17.6989 9.49365 16.3586 10.837 16.3586 12.4935V20.4933C16.3586 22.1508 17.6989 23.4941 19.3525 23.4941C20.1474 23.4934 20.9094 23.1769 21.4709 22.6143C22.0325 22.0517 22.3476 21.2891 22.3469 20.4943" fill="white"/>
<path d="M19.3526 39.4936C20.1475 39.4929 20.9095 39.1764 21.471 38.6138C22.0325 38.0512 22.3476 37.2886 22.347 36.4938C22.3476 35.6989 22.0325 34.9363 21.471 34.3737C20.9095 33.8112 20.1475 33.4947 19.3526 33.4939H16.3587V36.4938C16.3587 38.1503 17.699 39.4936 19.3526 39.4936ZM19.3526 31.4939H27.3373C28.9903 31.4939 30.3311 30.1506 30.3311 28.4935C30.3318 27.6987 30.0167 26.9361 29.4552 26.3735C28.8936 25.8109 28.1316 25.4944 27.3368 25.4937H19.3526C17.699 25.4937 16.3587 26.837 16.3587 28.4935C16.3583 28.8871 16.4354 29.2769 16.5857 29.6406C16.7359 30.0044 16.9563 30.335 17.2343 30.6135C17.5124 30.8921 17.8425 31.1132 18.206 31.2642C18.5694 31.4151 18.959 31.493 19.3526 31.4934" fill="white"/>
<path d="M0.389955 28.4935C0.38956 28.8871 0.466685 29.2769 0.616928 29.6406C0.767171 30.0044 0.987588 30.335 1.2656 30.6135C1.5436 30.8921 1.87375 31.1132 2.2372 31.2642C2.60065 31.4151 2.99028 31.493 3.38383 31.4934C4.1787 31.4926 4.94071 31.1761 5.50225 30.6136C6.06379 30.051 6.37887 29.2884 6.37821 28.4935V25.4937H3.38383C1.73026 25.4937 0.389955 26.837 0.389955 28.4935ZM8.37413 28.4935V36.4933C8.37413 38.1503 9.71443 39.4936 11.368 39.4936C12.1629 39.4929 12.9249 39.1764 13.4864 38.6138C14.048 38.0512 14.363 37.2886 14.3624 36.4938V28.4935C14.3628 28.0999 14.2856 27.7101 14.1354 27.3463C13.9851 26.9826 13.7646 26.6519 13.4866 26.3734C13.2085 26.0948 12.8783 25.8737 12.5148 25.7228C12.1513 25.5718 11.7616 25.494 11.368 25.4937C9.71443 25.4937 8.37413 26.837 8.37413 28.4935Z" fill="white"/>
</g>
<defs>
<clipPath id="clip0_2_515">
<rect width="121" height="48" fill="white" transform="translate(0.389954 0.790039)"/>
</clipPath>
</defs>
</svg>
