<svg width="140" height="49" viewBox="0 0 140 49" fill="none" xmlns="http://www.w3.org/2000/svg">
<g clip-path="url(#clip0_2_514)">
<path d="M21.0626 3.86914C9.46469 3.86914 0.0622559 13.2713 0.0622559 24.8693C0.0622559 36.4677 9.46469 45.8691 21.0626 45.8691C32.6618 45.8691 42.0633 36.4677 42.0633 24.8693C42.0633 13.2721 32.6618 3.87014 21.0624 3.87014L21.0626 3.86914ZM30.6933 34.1574C30.3171 34.7742 29.5096 34.9699 28.8927 34.5912C23.9621 31.5794 17.755 30.8973 10.445 32.5675C9.74054 32.728 9.03838 32.2866 8.87789 31.5819C8.71664 30.8773 9.15625 30.1751 9.86242 30.0146C17.862 28.187 24.7239 28.9739 30.2594 32.3568C30.8763 32.7355 31.0719 33.5405 30.6933 34.1574ZM33.2637 28.4393C32.7897 29.2096 31.7816 29.4529 31.0118 28.9789C25.3669 25.5092 16.7622 24.5044 10.0854 26.5311C9.21944 26.7927 8.30488 26.3047 8.04207 25.4403C7.78126 24.5744 8.26952 23.6616 9.13393 23.3982C16.7607 21.0841 26.2421 22.2051 32.7245 26.1886C33.4944 26.6625 33.7376 27.6706 33.2637 28.4395V28.4393ZM33.4844 22.4849C26.716 18.4648 15.5492 18.0952 9.08703 20.0565C8.04934 20.3712 6.95196 19.7854 6.63749 18.7477C6.32302 17.7095 6.90833 16.6129 7.94677 16.2974C15.3649 14.0455 27.6966 14.4805 35.489 19.1065C36.4244 19.6605 36.7304 20.8659 36.1762 21.7981C35.6245 22.7314 34.4157 23.0391 33.4854 22.4849H33.4844ZM57.1974 23.2553C53.5712 22.3906 52.9267 21.7838 52.9267 20.5086C52.9267 19.3039 54.0602 18.4931 55.7479 18.4931C57.3829 18.4931 59.0029 19.1088 60.7031 20.3762C60.7533 20.4146 60.8185 20.4299 60.8812 20.4198C60.9464 20.4103 61.0016 20.3754 61.0392 20.323L62.8096 17.8273C62.8824 17.7245 62.8623 17.5828 62.7645 17.5044C60.7408 15.8811 58.4638 15.0919 55.8006 15.0919C51.886 15.0919 49.1501 17.4414 49.1501 20.803C49.1501 24.4078 51.5098 25.6843 55.5874 26.6696C59.0556 27.4688 59.6424 28.1383 59.6424 29.335C59.6424 30.6616 58.4587 31.4866 56.5529 31.4866C54.4364 31.4866 52.7085 30.7719 50.7776 29.1018C50.7299 29.0592 50.6647 29.0416 50.6046 29.0441C50.5394 29.0491 50.4817 29.0792 50.4416 29.1269L48.4554 31.4891C48.3727 31.5894 48.3827 31.7349 48.478 31.8202C50.7249 33.8263 53.4884 34.8846 56.4726 34.8846C60.6906 34.8846 63.4165 32.58 63.4165 29.0115C63.424 26.0005 61.621 24.3329 57.2049 23.2586L57.1974 23.2553ZM72.9609 19.6793C71.1328 19.6793 69.6331 20.3995 68.3943 21.8753V20.2142C68.3943 20.083 68.289 19.9762 68.1586 19.9762H64.9111C64.7807 19.9762 64.6754 20.083 64.6754 20.2142V38.6712C64.6754 38.8016 64.7807 38.9095 64.9111 38.9095H68.1586C68.289 38.9095 68.3943 38.8016 68.3943 38.6712V32.8458C69.6331 34.2326 71.1328 34.9122 72.9609 34.9122C76.3588 34.9122 79.7994 32.2966 79.7994 27.2965C79.8044 22.2953 76.3638 19.679 72.9634 19.679L72.9609 19.6793ZM76.0228 27.2965C76.0228 29.8416 74.4555 31.6195 72.2086 31.6195C69.9892 31.6195 68.3141 29.7613 68.3141 27.2965C68.3141 24.8314 69.9892 22.9737 72.2086 22.9737C74.4179 22.9734 76.0228 24.791 76.0228 27.2962V27.2965ZM88.6141 19.6793C84.2381 19.6793 80.81 23.0487 80.81 27.3509C80.81 31.607 84.2155 34.9398 88.5614 34.9398C92.9524 34.9398 96.3905 31.5819 96.3905 27.2965C96.3905 23.0256 92.975 19.6798 88.6141 19.6798V19.6793ZM88.6141 31.6446C86.2869 31.6446 84.5315 29.7739 84.5315 27.2952C84.5315 24.8053 86.2267 22.9985 88.5614 22.9985C90.9036 22.9985 92.669 24.8685 92.669 27.3497C92.669 29.8391 90.9638 31.6446 88.6141 31.6446ZM105.734 19.9762H102.161V16.3235C102.161 16.1926 102.055 16.0857 101.925 16.0857H98.6775C98.5471 16.0857 98.4393 16.1926 98.4393 16.3235V19.9762H96.8795C96.7491 19.9762 96.6438 20.083 96.6438 20.2142V23.0045C96.6438 23.1354 96.7491 23.2425 96.8795 23.2425H98.4393V30.4635C98.4393 33.38 99.8913 34.8595 102.758 34.8595C103.921 34.8595 104.887 34.6188 105.797 34.1022C105.872 34.0621 105.917 33.9818 105.917 33.8965V31.2384C105.917 31.1581 105.875 31.0804 105.804 31.0377C105.734 30.9926 105.646 30.9901 105.574 31.0277C104.949 31.3412 104.345 31.4866 103.668 31.4866C102.627 31.4866 102.161 31.0127 102.161 29.9544V23.2438H105.734C105.865 23.2438 105.97 23.1369 105.97 23.0058V20.2157C105.975 20.0845 105.87 19.9777 105.737 19.9777L105.734 19.9762ZM118.183 19.9905V19.5419C118.183 18.2221 118.689 17.6335 119.823 17.6335C120.5 17.6335 121.044 17.7679 121.653 17.971C121.728 17.9946 121.806 17.9828 121.866 17.9379C121.929 17.893 121.964 17.8211 121.964 17.7448V15.0089C121.964 14.9044 121.899 14.8118 121.796 14.781C121.154 14.5896 120.332 14.3933 119.098 14.3933C116.101 14.3933 114.514 16.082 114.514 19.2751V19.9622H112.954C112.824 19.9622 112.716 20.069 112.716 20.1999V23.0045C112.716 23.1354 112.824 23.2425 112.954 23.2425H114.514V34.378C114.514 34.5109 114.622 34.6163 114.752 34.6163H117.997C118.13 34.6163 118.235 34.5109 118.235 34.378V23.2433H121.267L125.911 34.378C125.385 35.5466 124.866 35.7798 124.158 35.7798C123.587 35.7798 122.982 35.6093 122.368 35.2708C122.31 35.2407 122.24 35.2357 122.18 35.2532C122.117 35.2758 122.065 35.3209 122.039 35.3811L120.939 37.7961C120.886 37.9114 120.931 38.0443 121.041 38.1045C122.19 38.7264 123.226 38.9922 124.507 38.9922C126.904 38.9922 128.231 37.8738 129.397 34.8695L135.029 20.3155C135.06 20.2423 135.049 20.1595 135.004 20.0946C134.962 20.0301 134.889 19.9913 134.811 19.9913H131.431C131.328 19.9913 131.238 20.0557 131.205 20.1507L127.742 30.0397L123.95 20.1442C123.915 20.0522 123.827 19.9913 123.73 19.9913H118.183V19.9905ZM110.965 19.9762H107.718C107.587 19.9762 107.48 20.083 107.48 20.2142V34.378C107.48 34.5109 107.587 34.6163 107.718 34.6163H110.965C111.096 34.6163 111.204 34.5109 111.204 34.378V20.2152C111.204 20.084 111.098 19.9772 110.965 19.9772V19.9762ZM109.36 13.5266C108.074 13.5266 107.031 14.5678 107.031 15.854C107.031 17.141 108.074 18.1834 109.36 18.1834C110.647 18.1834 111.688 17.141 111.688 15.854C111.688 14.5681 110.644 13.5266 109.36 13.5266ZM137.803 24.5305C136.519 24.5305 135.518 23.4985 135.518 22.2454C135.518 20.9923 136.532 19.9486 137.815 19.9486C139.099 19.9486 140.1 20.9803 140.1 22.2324C140.1 23.4855 139.087 24.5305 137.803 24.5305ZM137.815 20.1758C136.644 20.1758 135.759 21.1062 135.759 22.2454C135.759 23.3842 136.639 24.302 137.803 24.302C138.974 24.302 139.859 23.3724 139.859 22.2324C139.859 21.0936 138.979 20.1758 137.815 20.1758ZM138.322 22.4674L138.969 23.3722H138.422L137.841 22.5421H137.342V23.3722H136.885V20.9738H137.953C138.513 20.9738 138.879 21.2589 138.879 21.7389C138.881 22.1321 138.653 22.3723 138.325 22.4674H138.322ZM137.936 21.3853H137.342V22.1439H137.936C138.232 22.1439 138.41 21.9987 138.41 21.7642C138.41 21.5175 138.232 21.3853 137.936 21.3853Z" fill="white"/>
</g>
<defs>
<clipPath id="clip0_2_514">
<rect width="140" height="48" fill="white" transform="translate(-0.0100098 0.790039)"/>
</clipPath>
</defs>
</svg>
