<svg width="169" height="49" viewBox="0 0 169 49" fill="none" xmlns="http://www.w3.org/2000/svg">
<g clip-path="url(#clip0_2_517)">
<path fill-rule="evenodd" clip-rule="evenodd" d="M44.8362 10.8958L30.5901 38.7452H17.209L23.171 27.2032H22.9035C17.9849 33.5881 10.6463 37.7914 0.189941 38.7452V27.363C0.189941 27.363 6.87914 26.9679 10.8115 22.8335H0.189941V10.896H12.1275V20.7144L12.3954 20.7133L17.2735 10.896H26.3016V20.6522L26.5695 20.6517L31.6305 10.8958H44.8362Z" fill="white"/>
<path d="M122.521 35.6714H126.365V13.6035H122.521V35.6714Z" fill="white"/>
<path fill-rule="evenodd" clip-rule="evenodd" d="M101.326 35.446C102.162 35.7935 103.011 35.967 103.875 35.967C105.302 35.967 106.579 35.6197 107.705 34.925C108.832 34.2303 109.705 33.2725 110.325 32.0521C110.945 30.8222 111.254 29.428 111.254 27.8695C111.254 26.3109 110.935 24.9168 110.297 23.6868C109.658 22.4569 108.771 21.504 107.635 20.828C106.499 20.1427 105.208 19.8047 103.762 19.8141C102.842 19.8141 101.96 19.9924 101.115 20.3492C100.27 20.706 99.5657 21.213 99.0023 21.8702C98.9588 21.9202 98.9166 21.9707 98.8756 22.0218V13.6176H95.0168V35.6714H98.8474L98.8397 33.6112C98.9389 33.7326 99.0447 33.8513 99.1573 33.9673C99.7676 34.5964 100.49 35.0893 101.326 35.446ZM105.269 31.8831C104.64 32.2679 103.922 32.4605 103.115 32.4605C102.316 32.4605 101.584 32.2633 100.918 31.869C100.251 31.4652 99.7205 30.9161 99.3262 30.2213C98.9413 29.5266 98.7489 28.7379 98.7489 27.8554C98.7395 26.9729 98.9273 26.1842 99.3122 25.4895C99.7065 24.7853 100.237 24.2408 100.904 23.8558C101.57 23.4615 102.307 23.2691 103.115 23.2784C103.922 23.2691 104.64 23.4568 105.269 23.8418C105.908 24.2173 106.396 24.7571 106.734 25.4613C107.081 26.156 107.255 26.9541 107.255 27.8554C107.255 28.7567 107.081 29.5547 106.734 30.2495C106.396 30.9442 105.908 31.4887 105.269 31.8831Z" fill="white"/>
<path d="M50.406 14.9414H54.7999L58.7304 29.2956L62.9117 14.9414H66.5732L71.1079 29.0076L74.8821 14.9414H78.9097L72.9668 35.6714H69.1784L64.5674 21.9299L60.3344 35.6714H56.5038L50.406 14.9414Z" fill="white"/>
<path fill-rule="evenodd" clip-rule="evenodd" d="M85.3983 36.0376C83.8679 36.0469 82.4879 35.7088 81.2579 35.0235C80.0375 34.3288 79.0751 33.3664 78.3709 32.1366C77.6762 30.9066 77.3287 29.5031 77.3287 27.9258C77.3287 26.3955 77.6856 25.0106 78.3991 23.7713C79.1125 22.5321 80.0797 21.565 81.3001 20.8703C82.5206 20.1755 83.882 19.8281 85.3842 19.8281C87.0741 19.8281 88.5529 20.2037 89.8203 20.9548C91.0972 21.7058 92.0501 22.7715 92.6791 24.1516C93.3175 25.5223 93.5475 27.0949 93.3692 28.8693H81.3061C81.3398 29.5762 81.5162 30.2195 81.8353 30.7986C82.1921 31.4371 82.6897 31.9347 83.328 32.2915C83.9664 32.6482 84.68 32.8266 85.4687 32.8266C86.0695 32.8173 86.6281 32.7139 87.1445 32.5169C87.6609 32.3103 88.0974 32.0333 88.4543 31.686C88.8203 31.3385 89.0785 30.9442 89.2287 30.503H93.2566C93.0125 31.5826 92.5242 32.545 91.7919 33.39C91.0596 34.2255 90.1394 34.878 89.0317 35.3475C87.9237 35.8168 86.7126 36.0469 85.3983 36.0376ZM81.8494 24.9965C81.6243 25.3889 81.4686 25.8114 81.3818 26.264H89.378C89.32 25.6922 89.1435 25.1711 88.8485 24.7008C88.5106 24.1469 88.0506 23.7197 87.4684 23.4193C86.8863 23.1095 86.2292 22.9545 85.4968 22.9545C84.7176 22.9545 84.0088 23.1329 83.3704 23.4897C82.732 23.8465 82.2249 24.3487 81.8494 24.9965Z" fill="white"/>
<path d="M114.085 20.1521C114.085 18.894 114.371 17.7767 114.944 16.8003C115.517 15.8145 116.32 15.0494 117.352 14.5048C118.394 13.9509 119.61 13.6645 121 13.6458V17.0679C120.352 17.0773 119.798 17.2134 119.338 17.4763C118.887 17.7298 118.54 18.1006 118.296 18.5888C118.071 19.0383 117.95 19.5594 117.932 20.1521H120.915V23.4052H117.93V35.6714H114.085V23.4052H111.606V20.1521H114.085Z" fill="white"/>
<path fill-rule="evenodd" clip-rule="evenodd" d="M136.139 36.0094C134.571 36.0094 133.167 35.6666 131.928 34.9813C130.698 34.2866 129.731 33.3288 129.027 32.1085C128.332 30.8785 127.985 29.4843 127.985 27.9258C127.985 26.3579 128.332 24.959 129.027 23.7291C129.731 22.4898 130.698 21.5275 131.928 20.8421C133.167 20.1567 134.571 19.8141 136.139 19.8141C137.716 19.8141 139.124 20.1567 140.364 20.8421C141.612 21.5275 142.584 22.4851 143.279 23.715C143.973 24.9449 144.325 26.3485 144.335 27.9258C144.325 29.4843 143.973 30.8785 143.279 32.1085C142.593 33.3288 141.626 34.2866 140.378 34.9813C139.129 35.6666 137.716 36.0094 136.139 36.0094ZM136.139 32.4746C136.965 32.4746 137.697 32.2868 138.336 31.9112C138.974 31.5263 139.467 30.9911 139.814 30.3058C140.162 29.611 140.335 28.8178 140.335 27.9258C140.335 27.0245 140.162 26.2265 139.814 25.5317C139.467 24.8369 138.974 24.3018 138.336 23.9262C137.697 23.5413 136.965 23.3489 136.139 23.3489C135.322 23.3489 134.594 23.5413 133.956 23.9262C133.327 24.3018 132.839 24.8369 132.491 25.5317C132.144 26.2265 131.975 27.0245 131.984 27.9258C131.984 28.8178 132.158 29.611 132.505 30.3058C132.862 30.9911 133.35 31.5263 133.97 31.9112C134.599 32.2868 135.322 32.4746 136.139 32.4746Z" fill="white"/>
<path d="M148.489 20.152H144.208L148.841 35.6714H152.587L155.635 25.7592L158.925 35.6714H162.615L167.262 20.152H163.39L160.754 29.8118L157.841 20.152H154.094L151.195 30.0247L148.489 20.152Z" fill="white"/>
</g>
<defs>
<clipPath id="clip0_2_517">
<rect width="168" height="48" fill="white" transform="translate(0.189941 0.790039)"/>
</clipPath>
</defs>
</svg>
