<svg width="99" height="49" viewBox="0 0 99 49" fill="none" xmlns="http://www.w3.org/2000/svg">
<g clip-path="url(#clip0_2_518)">
<path fill-rule="evenodd" clip-rule="evenodd" d="M80.2972 21.3873C80.6714 22.0329 80.7939 22.7675 80.8343 23.5933L80.8874 24.694V32.3907L80.9417 33.4926C81.0503 35.292 82.3773 36.6226 84.1907 36.7358L85.2867 36.79V24.694L85.341 23.5933C85.3861 22.7767 85.5073 22.0283 85.8873 21.378C86.2745 20.7111 86.8304 20.1577 87.4991 19.7735C88.1678 19.3893 88.9258 19.1878 89.697 19.1892C90.4682 19.1906 91.2254 19.3949 91.8927 19.7815C92.56 20.1681 93.1138 20.7235 93.4986 21.3919C93.8728 22.0375 93.9895 22.7859 94.0345 23.5933L94.0888 24.6905V32.3907L94.1431 33.4926C94.2563 35.3013 95.573 36.6318 97.392 36.7358L98.4881 36.79V23.5933C98.4881 21.2597 97.5613 19.0217 95.9116 17.3713C94.2619 15.7209 92.0242 14.7933 89.6907 14.7924C88.4417 14.791 87.2068 15.0563 86.0685 15.5703C84.9302 16.0844 83.9148 16.8355 83.09 17.7733C82.2648 16.8358 81.2493 16.085 80.1111 15.5707C78.9729 15.0565 77.7382 14.7908 76.4893 14.7912C74.6621 14.7912 72.9666 15.3456 71.5621 16.3031C70.7051 15.3467 68.7879 14.7912 67.6872 14.7912V36.79L68.7879 36.7358C70.6289 36.6145 71.9594 35.3198 72.0311 33.4926L72.09 32.3907V24.694L72.1442 23.5933C72.1904 22.7628 72.3059 22.0329 72.6813 21.3826C73.0688 20.7161 73.6244 20.1629 74.2926 19.7782C74.9608 19.3935 75.7183 19.1909 76.4893 19.1905C77.2609 19.1907 78.0189 19.3937 78.6872 19.7793C79.3556 20.1649 79.9108 20.7194 80.2972 21.3873ZM4.98927 36.7369L6.08997 36.79H22.5888L22.5345 35.6928C22.3855 33.8841 21.1047 32.5628 19.2902 32.445L18.1895 32.3907H8.29135L21.4881 19.1893L21.4338 18.0933C21.3484 16.2661 20.0132 14.946 18.1895 14.8455L17.0888 14.7958L0.589966 14.7912L0.64425 15.8919C0.788622 17.6833 2.08797 19.0323 3.88742 19.1362L4.98927 19.1905H14.8874L1.69066 32.3919L1.74494 33.4926C1.85351 35.3059 3.1621 36.6191 4.98927 36.7358V36.7369ZM63.3687 18.0113C64.3903 19.0326 65.2007 20.2452 65.7536 21.5798C66.3065 22.9144 66.591 24.3449 66.591 25.7895C66.591 27.2341 66.3065 28.6645 65.7536 29.9991C65.2007 31.3337 64.3903 32.5463 63.3687 33.5677C61.3048 35.6299 58.5065 36.7884 55.5888 36.7884C52.6711 36.7884 49.8728 35.6299 47.8089 33.5677C43.5135 29.2723 43.5135 22.3066 47.8089 18.0113C48.8295 16.9902 50.0413 16.1803 51.375 15.6276C52.7087 15.0749 54.1382 14.7903 55.5819 14.79C57.0279 14.789 58.4599 15.0731 59.7961 15.6261C61.1322 16.179 62.3463 16.9899 63.3687 18.0124V18.0113ZM60.2561 21.1262C61.4933 22.3644 62.1883 24.0431 62.1883 25.7935C62.1883 27.5439 61.4933 29.2226 60.2561 30.4608C59.0179 31.698 57.3392 32.393 55.5888 32.393C53.8385 32.393 52.1597 31.698 50.9215 30.4608C49.6843 29.2226 48.9893 27.5439 48.9893 25.7935C48.9893 24.0431 49.6843 22.3644 50.9215 21.1262C52.1597 19.889 53.8385 19.194 55.5888 19.194C57.3392 19.194 59.0179 19.889 60.2561 21.1262ZM32.4962 14.79C33.94 14.7904 35.3695 15.0752 36.7032 15.6281C38.0369 16.181 39.2486 16.9912 40.2692 18.0124C44.5657 22.3066 44.5657 29.2734 40.2692 33.5677C38.2053 35.6299 35.4069 36.7884 32.4893 36.7884C29.5716 36.7884 26.7733 35.6299 24.7093 33.5677C20.414 29.2723 20.414 22.3066 24.7093 18.0113C25.73 16.9902 26.9418 16.1803 28.2755 15.6276C29.6092 15.0749 31.0387 14.7903 32.4823 14.79H32.4962ZM37.1565 21.1239C38.3941 22.3621 39.0893 24.0411 39.0893 25.7918C39.0893 27.5424 38.3941 29.2214 37.1565 30.4596C35.9184 31.6968 34.2396 32.3918 32.4893 32.3918C30.7389 32.3918 29.0602 31.6968 27.822 30.4596C26.5848 29.2215 25.8898 27.5427 25.8898 25.7923C25.8898 24.042 26.5848 22.3632 27.822 21.1251C29.0602 19.8879 30.7389 19.1929 32.4893 19.1929C34.2396 19.1929 35.9184 19.8879 37.1565 21.1251V21.1239Z" fill="white"/>
</g>
<defs>
<clipPath id="clip0_2_518">
<rect width="98" height="48" fill="white" transform="translate(0.589966 0.790039)"/>
</clipPath>
</defs>
</svg>
