<svg width="525" height="470" viewBox="0 0 525 470" fill="none" xmlns="http://www.w3.org/2000/svg">
<path fill-rule="evenodd" clip-rule="evenodd" d="M100.458 455.378C100.458 463.198 106.797 469.538 114.618 469.538H182.578C182.583 469.538 182.585 469.535 182.585 469.532C182.585 469.528 182.589 469.525 182.592 469.525H510.266C518.087 469.525 524.426 463.185 524.426 455.365L524.425 216.159C524.425 208.339 518.086 201.999 510.266 201.999H345.508C337.687 201.999 331.348 195.659 331.348 187.839V96.7132C331.348 88.8929 325.008 82.5535 317.187 82.5535H185.017C177.197 82.5535 170.857 76.2139 170.857 68.3935V14.1604C170.857 6.3401 164.518 0.000488281 156.698 0.000488281H76.6656C68.8453 0.000488281 62.5057 6.3401 62.5057 14.1604V89.893C62.5057 97.7133 68.8453 104.053 76.6656 104.053H144.128C151.948 104.053 158.288 110.392 158.288 118.212V235.249C158.288 243.069 151.948 249.409 144.128 249.409H100.458H14.8339C7.01358 249.409 0.673981 255.748 0.673981 263.568V383.466C0.673981 391.286 7.01358 397.626 14.8339 397.626H86.2981C94.1186 397.626 100.458 403.966 100.458 411.786V455.378Z" fill="#1B238D"/>
</svg>
